# xmcd
#
# Track frame offsets: 
#        150
#        16627
#        25165
#        43808
#        59965
#        73555
#        85463
#        98800
#        109610
#        128365
#        141808
#        158138
#        169695
#        185308
#        198280
#        209338
#
# Disc length: 2944 seconds
#
# Revision: 1
# Processed by: cddbd v1.5.2PL0 Copyright (c) Steve Scherf et al.
# Submitted via: ExactAudioCopy v0.99pb5
#
DISCID=d50b7e10
DTITLE=All Time Favourits - Fausto Papetti
DYEAR=1990
DGENRE=Instrumental Pop
TTITLE0=Petite Fleur
TTITLE1=Hello Dolly
TTITLE2=Samba Pa Ti
TTITLE3=Lamer
TTITLE4=A Whiter Shade Of Pale
TTITLE5=Georgia On My Mind
TTITLE6=Arrivederci Roma
TTITLE7=Brazil
TTITLE8=My Way
TTITLE9=El Condor Pasa
TTITLE10=Concerto ¹2
TTITLE11=Wonderland By Night
TTITLE12=El Tinto
TTITLE13=Saint Louis Blues
TTITLE14=Summertime
TTITLE15=Arrivederci
EXTD=
EXTT0=
EXTT1=
EXTT2=
EXTT3=
EXTT4=
EXTT5=
EXTT6=
EXTT7=
EXTT8=
EXTT9=
EXTT10=
EXTT11=
EXTT12=
EXTT13=
EXTT14=
EXTT15=
PLAYORDER=
